<?xml version="1.0" encoding="utf-8"?>
<!-- Generator: Adobe Illustrator 16.0.0, SVG Export Plug-In . SVG Version: 6.00 Build 0)  -->
<!DOCTYPE svg PUBLIC "-//W3C//DTD SVG 1.1//EN" "http://www.w3.org/Graphics/SVG/1.1/DTD/svg11.dtd">
<svg version="1.1" id="Capa_1" xmlns="http://www.w3.org/2000/svg" xmlns:xlink="http://www.w3.org/1999/xlink" x="0px" y="0px"
	 width="108.171px" height="200px" viewBox="0 0 108.171 200" enable-background="new 0 0 108.171 200" xml:space="preserve">
<g>
	<path fill="#8CC63F" d="M67.281,108.402c0.219-3.144,0.318-6.26,0.312-9.34c-3.23,1.86-6.874,3.126-10.803,3.626
		c-15.892,2.025-30.416-9.217-32.44-25.107c-2.025-15.893,9.217-30.416,25.108-32.441c2.85-0.362,5.655-0.297,8.352,0.144
		c-2.757-7.862-5.598-14.323-7.79-18.887c-0.968,0.07-1.939,0.166-2.913,0.29C17.569,30.45-3.325,57.447,0.438,86.984
		c1.373,10.778,10.679,23.894,22.021,40.059l44.392-18.933L67.281,108.402z"/>
	<path fill="#D9E021" d="M81.898,70.248c1.524,11.964-4.47,23.15-14.306,28.814c0.006,3.08-0.093,6.196-0.312,9.34l29.229,19.859
		c13.021-25.431,12.378-43.261,10.895-54.906c-3.64-28.564-29.005-49.042-57.384-46.959c2.192,4.563,5.033,11.024,7.79,18.887
		C70.156,47.298,80.237,57.206,81.898,70.248z"/>
	<path fill="#39B54A" d="M64.018,129.107c1.75-6.961,2.789-13.896,3.263-20.705l-0.429-0.292l-44.392,18.933
		c1.496,2.129,3.024,4.311,4.577,6.55c3.338,4.813,5.245,9.99,6.129,15.255l30.65-19.941L64.018,129.107z"/>
	<path fill="#009245" d="M61.315,138.202C54.482,158.019,18.969,200,18.969,200s45.973-24.391,64.864-51.008l-19.815-19.885
		C63.255,132.137,62.36,135.172,61.315,138.202z"/>
	<path fill="#8CC63F" d="M96.509,128.262l-29.229-19.859c-0.475,6.81-1.513,13.744-3.263,20.705l19.815,19.885
		c0.042-0.061,0.086-0.121,0.129-0.182C89.136,141.47,93.25,134.628,96.509,128.262z"/>
	<path fill="#D9E021" d="M61.315,138.202c1.044-3.03,1.94-6.065,2.702-9.095l-0.201-0.201l-30.65,19.941
		C37.302,173.471,18.969,200,18.969,200S54.482,158.019,61.315,138.202z"/>
</g>
<path fill="#8CC63F" d="M49.234,26.396c0,0-5.946,1.192-8.176-7.164C38.829,10.878,48.367,0,48.367,0S28.341,9.354,33.295,18.971
	c4.955,9.616,3.809,13.978,3.809,13.978L49.234,26.396z"/>
</svg>
